<?xml version="1.0" encoding="UTF-8" standalone="no"?><svg xmlns:svg="http://www.w3.org/2000/svg" xmlns="http://www.w3.org/2000/svg" xmlns:xlink="http://www.w3.org/1999/xlink" version="1.0" width="64px" height="64px" viewBox="0 0 128 128" xml:space="preserve"><rect x="0" y="0" width="100%" height="100%" fill="rgb(245, 245, 245)" /><g><path d="M59.6 0h8v40h-8V0z" fill="#2889e3"/><path d="M59.6 0h8v40h-8V0z" fill="#d4e7f9" transform="rotate(30 64 64)"/><path d="M59.6 0h8v40h-8V0z" fill="#d4e7f9" transform="rotate(60 64 64)"/><path d="M59.6 0h8v40h-8V0z" fill="#d4e7f9" transform="rotate(90 64 64)"/><path d="M59.6 0h8v40h-8V0z" fill="#d4e7f9" transform="rotate(120 64 64)"/><path d="M59.6 0h8v40h-8V0z" fill="#bedbf7" transform="rotate(150 64 64)"/><path d="M59.6 0h8v40h-8V0z" fill="#a9d0f4" transform="rotate(180 64 64)"/><path d="M59.6 0h8v40h-8V0z" fill="#93c4f1" transform="rotate(210 64 64)"/><path d="M59.6 0h8v40h-8V0z" fill="#7eb8ee" transform="rotate(240 64 64)"/><path d="M59.6 0h8v40h-8V0z" fill="#68aceb" transform="rotate(270 64 64)"/><path d="M59.6 0h8v40h-8V0z" fill="#53a1e9" transform="rotate(300 64 64)"/><path d="M59.6 0h8v40h-8V0z" fill="#3d95e6" transform="rotate(330 64 64)"/><animateTransform attributeName="transform" type="rotate" values="0 64 64;30 64 64;60 64 64;90 64 64;120 64 64;150 64 64;180 64 64;210 64 64;240 64 64;270 64 64;300 64 64;330 64 64" calcMode="discrete" dur="1080ms" repeatCount="indefinite"></animateTransform></g></svg>